<svg width="16" height="17" viewBox="0 0 16 17" fill="none" xmlns="http://www.w3.org/2000/svg">
<path d="M8.17395 4.10618C8.12742 4.06167 8.06552 4.03683 8.00113 4.03683C7.93675 4.03683 7.87485 4.06167 7.82832 4.10618L2.0752 9.60212C2.05076 9.62549 2.03132 9.65358 2.01806 9.68468C2.00479 9.71578 1.99797 9.74924 1.99801 9.78306L1.99707 14.9412C1.99707 15.2064 2.10243 15.4608 2.28996 15.6483C2.4775 15.8358 2.73185 15.9412 2.99707 15.9412H6.0002C6.1328 15.9412 6.25998 15.8885 6.35375 15.7947C6.44752 15.701 6.5002 15.5738 6.5002 15.4412V11.1912C6.5002 11.1249 6.52653 11.0613 6.57342 11.0144C6.6203 10.9675 6.68389 10.9412 6.7502 10.9412H9.2502C9.3165 10.9412 9.38009 10.9675 9.42697 11.0144C9.47386 11.0613 9.5002 11.1249 9.5002 11.1912V15.4412C9.5002 15.5738 9.55287 15.701 9.64664 15.7947C9.74041 15.8885 9.86759 15.9412 10.0002 15.9412H13.0021C13.2673 15.9412 13.5216 15.8358 13.7092 15.6483C13.8967 15.4608 14.0021 15.2064 14.0021 14.9412V9.78306C14.0021 9.74924 13.9953 9.71578 13.982 9.68468C13.9688 9.65358 13.9493 9.62549 13.9249 9.60212L8.17395 4.10618Z" fill="white"/>
<path d="M15.3409 8.57086L13.0034 6.33461V2.94118C13.0034 2.80857 12.9508 2.68139 12.857 2.58762C12.7632 2.49386 12.6361 2.44118 12.5034 2.44118H11.0034C10.8708 2.44118 10.7437 2.49386 10.6499 2.58762C10.5561 2.68139 10.5034 2.80857 10.5034 2.94118V3.94118L8.69345 2.21055C8.52407 2.0393 8.2722 1.94118 8.00001 1.94118C7.72876 1.94118 7.47751 2.0393 7.30814 2.21086L0.661262 8.57024C0.466887 8.75774 0.442512 9.06618 0.619387 9.2693C0.663803 9.32057 0.718187 9.36227 0.77923 9.39186C0.840273 9.42144 0.906698 9.4383 0.974462 9.4414C1.04223 9.4445 1.10991 9.43377 1.1734 9.40988C1.23689 9.38599 1.29485 9.34943 1.34376 9.30243L7.82814 3.10618C7.87466 3.06167 7.93656 3.03683 8.00095 3.03683C8.06533 3.03683 8.12724 3.06167 8.17376 3.10618L14.6588 9.30243C14.7543 9.39404 14.8822 9.44403 15.0146 9.44145C15.1469 9.43888 15.2728 9.38394 15.3647 9.28868C15.5566 9.08993 15.5406 8.7618 15.3409 8.57086Z" fill="white"/>
</svg>