<svg width="347" height="114" viewBox="0 0 347 114" fill="none" xmlns="http://www.w3.org/2000/svg">
<path d="M15.4463 86.1573C7.32629 78.624 2.29629 69.3407 0.35629 58.3073C0.0429567 56.5273 -0.0637096 53.0573 0.0362904 47.8973C0.65629 15.8073 31.9963 -6.61268 63.0463 1.76732C107.016 13.6173 113.756 71.5773 74.0963 93.7173C72.3363 94.7073 71.2863 94.3873 69.6563 93.5173C63.4496 90.184 57.1696 86.9107 50.8163 83.6973C50.1563 83.3573 50.193 83.1373 50.9263 83.0373C53.2663 82.7273 55.9163 82.4973 58.1363 81.8873C74.2463 77.4373 85.5063 62.4473 82.9463 45.3673C77.7763 10.8673 30.3763 6.56733 18.4663 39.1373C14.2263 50.7373 17.6863 64.9173 26.8463 73.5773C28.6996 75.3307 32.2263 77.6806 37.4263 80.6273C49.0463 87.2073 58.5863 94.8573 71.7363 100.687C83.5696 105.927 95.5296 107.127 107.616 104.287C109.036 103.954 109.17 104.234 108.016 105.127C98.2763 112.707 85.5363 114.447 73.2063 112.507C49.5563 108.787 29.8163 90.3973 4.61629 100.927C4.53223 100.965 4.43837 100.974 4.34852 100.954C4.25866 100.934 4.17756 100.886 4.11712 100.817C4.05668 100.748 4.0201 100.661 4.01275 100.569C4.0054 100.477 4.02767 100.385 4.07629 100.307C7.20296 95.1273 10.993 90.5073 15.4463 86.4473C15.553 86.3473 15.553 86.2506 15.4463 86.1573Z" fill="white"/>
<path d="M315.136 43.6674C317.343 43.2007 319.55 42.7907 321.756 42.4374C339.096 39.6574 348.996 52.6674 346.336 68.8474C342.776 90.4474 316.256 88.5074 301.336 82.2874C301.194 82.2282 301.073 82.1282 300.987 82.0001C300.902 81.872 300.856 81.7214 300.856 81.5674V32.0674C300.856 31.7383 300.921 31.4123 301.047 31.1084C301.173 30.8044 301.357 30.5284 301.589 30.2961C301.821 30.0638 302.097 29.8799 302.4 29.7548C302.704 29.6298 303.028 29.5661 303.356 29.5674L312.246 29.5774C312.812 29.5774 313.355 29.8015 313.756 30.2007C314.157 30.5998 314.384 31.1416 314.386 31.7074L314.456 43.1174C314.456 43.5774 314.683 43.7607 315.136 43.6674ZM314.736 76.1574C320.066 77.1674 329.396 78.2774 331.636 71.8374C332.996 67.9241 333.15 63.4174 332.096 58.3174C330.336 49.7874 321.036 50.6474 314.786 53.0874C314.54 53.1807 314.416 53.3607 314.416 53.6274V75.7674C314.417 75.8607 314.449 75.9507 314.507 76.0219C314.566 76.0931 314.647 76.1411 314.736 76.1574Z" fill="white"/>
<path d="M138.846 82.3574C130.993 87.1107 122.986 87.7941 114.826 84.4074C109.446 82.1741 106.78 78.2841 106.826 72.7374C106.956 56.7374 127.446 58.9374 137.566 59.0374C137.893 59.0374 138.063 58.8774 138.076 58.5574C138.276 53.5707 135.876 50.9841 130.876 50.7974C127.55 50.6774 125.233 51.2007 123.926 52.3674C122.336 53.7974 120.996 55.2474 118.736 55.4574C116.276 55.6874 109.296 56.8574 109.916 52.4074C110.556 47.8474 113.29 44.9007 118.116 43.5674C131.036 40.0074 151.186 40.5874 151.526 58.6874C151.68 66.8141 151.756 75.0041 151.756 83.2574C151.757 83.8442 151.53 84.4083 151.124 84.8315C150.717 85.2547 150.163 85.5041 149.576 85.5274C147.226 85.6174 144.816 85.5074 142.396 85.5974C140.43 85.6707 139.406 84.6774 139.326 82.6174C139.313 82.2641 139.153 82.1774 138.846 82.3574ZM124.736 77.1774C129.476 77.7174 133.823 76.7007 137.776 74.1274C138.07 73.9407 138.216 73.6707 138.216 73.3174V68.3574C138.216 68.0307 138.053 67.8674 137.726 67.8674C135.66 67.8541 131.793 67.8874 126.126 67.9674C119.136 68.0674 118.266 76.4374 124.736 77.1774Z" fill="white"/>
<path d="M175.416 47.1474C180.316 43.4207 186.043 41.7107 192.596 42.0174C195.216 42.1474 194.516 48.5074 194.436 50.3674C194.425 50.6901 194.35 51.0073 194.215 51.3008C194.08 51.5943 193.889 51.8583 193.652 52.0776C193.415 52.2969 193.137 52.4672 192.834 52.5788C192.531 52.6903 192.209 52.7408 191.886 52.7274C184.716 52.4374 179.536 51.7874 174.896 58.1074C174.73 58.3274 174.646 58.5741 174.646 58.8474L174.656 83.2974C174.656 83.8995 174.416 84.4768 173.989 84.9025C173.561 85.3283 172.981 85.5674 172.376 85.5674H163.376C163.085 85.5674 162.796 85.5097 162.527 85.3977C162.257 85.2856 162.013 85.1213 161.807 84.9143C161.6 84.7072 161.437 84.4613 161.325 84.1908C161.214 83.9202 161.156 83.6302 161.156 83.3374V45.0774C161.156 44.4815 161.391 43.9096 161.808 43.4864C162.226 43.0631 162.793 42.8227 163.386 42.8174C166.006 42.7841 168.693 42.7841 171.446 42.8174C174.506 42.8474 174.806 44.0474 174.696 46.7774C174.676 47.4107 174.916 47.5341 175.416 47.1474Z" fill="white"/>
<path d="M211.786 68.6774C211.716 76.9774 219.866 78.9774 226.306 76.6474C228.926 75.6974 230.236 72.8974 233.376 72.8274C235.543 72.7741 237.69 72.7707 239.816 72.8174C240.352 72.8274 240.863 73.0436 241.244 73.4214C241.626 73.7991 241.849 74.3096 241.866 74.8474C242.246 86.8674 223.726 86.9374 216.126 85.9974C201.606 84.1874 195.896 72.5474 198.446 58.9774C200.286 49.1707 206.26 43.6141 216.366 42.3074C233.036 40.1474 243.906 48.6874 243.356 65.9074C243.336 66.5538 243.064 67.1668 242.599 67.6166C242.135 68.0664 241.513 68.3177 240.866 68.3174H212.146C211.906 68.3174 211.786 68.4374 211.786 68.6774ZM211.876 60.0674L229.216 60.0274C229.299 60.0274 229.377 59.9947 229.436 59.9366C229.494 59.8785 229.526 59.7996 229.526 59.7174V59.2474C229.521 57.0249 228.645 54.8955 227.09 53.3277C225.535 51.7599 223.43 50.8821 221.236 50.8874H219.816C218.73 50.89 217.655 51.1093 216.653 51.5329C215.651 51.9565 214.74 52.5759 213.974 53.3559C213.208 54.136 212.601 55.0612 212.188 56.079C211.775 57.0967 211.564 58.1869 211.566 59.2874V59.7574C211.566 59.8396 211.599 59.9185 211.657 59.9766C211.715 60.0347 211.794 60.0674 211.876 60.0674Z" fill="white"/>
<path d="M262.006 68.7773C262.036 76.9473 270.076 78.9373 276.466 76.6773C278.916 75.8173 280.556 72.9873 283.226 72.8673C285.786 72.7473 292.336 71.4573 292.096 75.6773C291.87 79.624 290.026 82.3307 286.566 83.7973C276.996 87.8573 260.396 88.0473 253.006 79.4473C247.616 73.1673 246.846 62.8473 249.456 55.0673C253.686 42.4473 269.496 39.7273 280.486 43.4573C290.546 46.8873 293.616 55.2873 293.596 65.3173C293.596 67.1573 292.766 68.084 291.106 68.0973C281.54 68.204 271.973 68.2973 262.406 68.3773C262.14 68.384 262.006 68.5173 262.006 68.7773ZM262.096 60.0673L279.476 60.0273C279.556 60.0273 279.632 59.9957 279.688 59.9395C279.745 59.8832 279.776 59.8069 279.776 59.7273V59.3673C279.771 57.1131 278.902 54.9532 277.36 53.3629C275.819 51.7726 273.731 50.8821 271.556 50.8873H269.976C268.899 50.8899 267.834 51.1123 266.84 51.5419C265.846 51.9715 264.943 52.5998 264.184 53.3909C263.424 54.1821 262.822 55.1206 262.413 56.1529C262.003 57.1852 261.794 58.2911 261.796 59.4073V59.7673C261.796 59.8067 261.804 59.8457 261.819 59.8821C261.834 59.9185 261.856 59.9516 261.884 59.9795C261.912 60.0073 261.945 60.0294 261.981 60.0445C262.018 60.0596 262.057 60.0673 262.096 60.0673Z" fill="white"/>
</svg>
