<svg width="16" height="16" viewBox="0 0 16 16" fill="none" xmlns="http://www.w3.org/2000/svg">
<path d="M12.9752 1.49599C13.4976 1.90559 13.8576 2.56719 14.0048 3.25999C14.0226 3.26563 14.04 3.27258 14.0568 3.28079L15.6928 4.03759C15.7842 4.07958 15.8618 4.14686 15.9162 4.23149C15.9706 4.31612 15.9997 4.41457 16 4.51519V14.4088C15.9994 14.491 15.9798 14.5719 15.9427 14.6452C15.9056 14.7186 15.852 14.7823 15.7861 14.8314C15.7202 14.8806 15.6438 14.9138 15.563 14.9285C15.4821 14.9431 15.3989 14.9389 15.32 14.916L10.7848 13.636L5.3928 15.1224C5.29552 15.1491 5.19269 15.148 5.096 15.1192L0.3792 13.7152C0.270177 13.6832 0.174392 13.6168 0.106076 13.526C0.0377608 13.4352 0.000559728 13.3248 0 13.2112L0 3.13999C0 2.78799 0.3424 2.53519 0.684 2.63439L5.2456 3.96319L7.564 3.25359C7.59591 3.24417 7.62856 3.23748 7.6616 3.23359C7.7512 2.70879 8.0016 2.20479 8.4216 1.71359C8.92 1.12959 9.7944 0.78719 10.6464 0.74639C11.5304 0.70399 12.2056 0.89279 12.9744 1.49519L12.9752 1.49599ZM1.0664 3.84639V12.8184L4.9624 13.9776V4.97999L1.0664 3.84639ZM7.6336 4.33759L6.0288 4.82799V13.8512L10.0808 12.736V10.1C10.0808 9.80879 10.32 9.57279 10.6144 9.57279C10.9088 9.57279 11.1472 9.80879 11.1472 10.1008V12.6424L14.9336 13.7104V4.85039L14.0376 4.43439C14.0224 4.52239 14.0032 4.60879 13.9792 4.69279C13.8052 5.3062 13.5134 5.87982 13.12 6.38159L11.1384 8.85599C11.0862 8.92105 11.0196 8.97304 10.9438 9.00782C10.868 9.0426 10.7851 9.05921 10.7018 9.05634C10.6184 9.05346 10.5369 9.03118 10.4637 8.99126C10.3905 8.95134 10.3276 8.89489 10.28 8.82639L8.428 6.14399C8.1224 5.71679 7.908 5.33599 7.7872 4.99519C7.71137 4.78248 7.65985 4.56188 7.6336 4.33759ZM10.6976 1.80079C10.1168 1.82879 9.52 2.06239 9.236 2.39439C8.8944 2.79439 8.7264 3.16879 8.6928 3.54799C8.6528 4.00479 8.68 4.32719 8.7936 4.64639C8.8776 4.88239 9.0448 5.18159 9.3032 5.54239L10.752 7.63999L12.28 5.73199C12.5883 5.33803 12.8168 4.88777 12.9528 4.40639C13.1448 3.73439 12.8552 2.74719 12.3128 2.32319C11.7568 1.88719 11.336 1.76959 10.6976 1.80079ZM10.808 2.35839C11.6912 2.35839 12.408 3.06639 12.408 3.93999C12.4068 4.14891 12.3645 4.35556 12.2835 4.54813C12.2025 4.7407 12.0843 4.91541 11.9357 5.06229C11.7871 5.20916 11.611 5.32532 11.4175 5.40413C11.224 5.48294 11.0169 5.52286 10.808 5.52159C9.9248 5.52159 9.208 4.81359 9.208 3.93999C9.208 3.06639 9.9248 2.35839 10.808 2.35839ZM10.808 3.41279C10.7383 3.41237 10.6693 3.42567 10.6048 3.45194C10.5403 3.4782 10.4816 3.51692 10.432 3.56588C10.3825 3.61483 10.343 3.67307 10.316 3.73726C10.289 3.80145 10.2748 3.87034 10.2744 3.93999C10.2744 4.23119 10.5136 4.46719 10.808 4.46719C10.8777 4.46751 10.9467 4.4541 11.0112 4.42774C11.0756 4.40137 11.1343 4.36257 11.1838 4.31354C11.2332 4.26451 11.2726 4.20621 11.2995 4.14198C11.3265 4.07775 11.3405 4.00884 11.3408 3.93919C11.3397 3.7988 11.2831 3.66455 11.1832 3.56588C11.0833 3.4672 10.9484 3.41215 10.808 3.41279Z" fill="white"/>
</svg>
