<svg width="16" height="17" viewBox="0 0 16 17" fill="none" xmlns="http://www.w3.org/2000/svg">
<path d="M16 16.0523C16 16.5432 15.602 16.9412 15.1111 16.9412H0.888889C0.397969 16.9412 0 16.5432 0 16.0523V16.0523C0 15.5614 0.397969 15.1634 0.888889 15.1634H15.1111C15.602 15.1634 16 15.5614 16 16.0523V16.0523ZM4.44444 8.1634C4.44444 7.61111 3.99673 7.1634 3.44444 7.1634H1.88889C1.3366 7.1634 0.888889 7.61111 0.888889 8.1634V12.3856C0.888889 12.9379 1.3366 13.3856 1.88889 13.3856H3.44444C3.99673 13.3856 4.44444 12.9379 4.44444 12.3856V8.1634ZM9.77778 1.94118C9.77778 1.38889 9.33006 0.941177 8.77778 0.941177H7.22222C6.66994 0.941177 6.22222 1.38889 6.22222 1.94118V12.3856C6.22222 12.9379 6.66994 13.3856 7.22222 13.3856H8.77778C9.33006 13.3856 9.77778 12.9379 9.77778 12.3856V1.94118ZM15.1111 4.60784C15.1111 4.05556 14.6634 3.60784 14.1111 3.60784H12.5556C12.0033 3.60784 11.5556 4.05556 11.5556 4.60784V12.3856C11.5556 12.9379 12.0033 13.3856 12.5556 13.3856H14.1111C14.6634 13.3856 15.1111 12.9379 15.1111 12.3856V4.60784Z" fill="white"/>
</svg>
