<svg width="16" height="17" viewBox="0 0 16 17" fill="none" xmlns="http://www.w3.org/2000/svg">
<path d="M13.3424 5.29756L3.53513 0.98042C3.33889 0.894389 3.11654 0.889769 2.9169 0.967574C2.81824 1.00666 2.72829 1.06487 2.65223 1.13887C2.57616 1.21287 2.51549 1.30118 2.47371 1.39873L0.0650342 7.01896C-0.0188416 7.21465 -0.0215542 7.43565 0.0574932 7.63334C0.136541 7.83104 0.290875 7.98924 0.486552 8.07315L6.07226 10.4666L5.07668 12.9555H1.60578V10.5469H0V16.97H1.60578V14.5613H5.07668C5.73745 14.5613 6.32276 14.1647 6.56684 13.5513L7.54797 11.0992L10.2931 12.2755C10.4879 12.3592 10.7079 12.3625 10.9051 12.2845C11.1023 12.2066 11.2607 12.0539 11.3456 11.8596L13.7543 6.35417C13.8395 6.1594 13.844 5.93879 13.7668 5.74071C13.6896 5.54263 13.537 5.38327 13.3424 5.29756ZM14.3958 12.4513L12.9041 11.8556L14.5082 7.84112L16 8.43606L14.3958 12.4513Z" fill="white"/>
</svg>
